<svg width="512" height="512" viewBox="0 0 512 512" fill="none" xmlns="http://www.w3.org/2000/svg">
<rect width="512" height="511" rx="255.5" fill="#414141"/>
<path d="M412 160.012C403.674 160.012 395.7 161.522 388.32 164.282C375.1 151.812 358.9 144.012 340 144.012C328.36 144.012 317.56 147.235 307.97 152.43L319.09 83.48C319.713 79.606 320.014 75.755 320.014 71.95C320.014 35.87 291.104 0 247.924 0C213.244 0 182.614 25.16 176.894 60.54L173.4 82.232L168.9 72.782C156.5 47.032 130.83 32.002 104.01 32.002C63.21 32.002 32 65.282 32 104.072C32 114.552 34.296 125.182 39.144 135.252L89.05 238.912C64.64 250.412 48 275.712 48 303.112V383.112C48 405.172 58.4 426.432 75.83 439.972L121.78 475.712C151.13 498.542 187.76 511.122 224.98 511.122L303.79 511.157C400.9 512.012 480 432.112 480 335.812V228.312C480 189.612 447.9 160.012 412 160.012ZM320 212.312C320 201.112 328.1 192.012 340 192.012C351.02 192.012 360 201.09 360 212.262V267.762C360 278.912 351 288.012 340 288.012C328.1 288.012 320 278.912 320 267.812V212.312ZM247.9 47.992C259.95 47.992 272.03 57.503 272.03 71.972C272.03 73.249 271.928 74.542 271.717 75.843L248.4 220.512C240.7 217.612 232.4 215.112 223.9 215.112C219.425 215.112 214.933 215.532 210.52 216.366L199.97 217.993L224.29 67.293C226.2 56.432 236.4 47.992 247.9 47.992ZM79.1 104.012C79.1 90.742 89.89 79.972 103.12 79.972C112.057 79.972 120.62 84.995 124.73 93.582L186.02 220.882L137.3 228.512L82.38 114.412C80.76 111.112 79.1 107.512 79.1 104.012ZM303.8 464.012L224.99 463.977C198.43 463.977 172.27 454.993 151.3 438.677L105.33 402.927C99.47 398.412 96 391.312 96 383.112V303.112C96 291.882 103.969 282.002 113.59 279.892L218.89 263.662C220.6 264.212 222.3 263.112 223.9 263.112C235.81 263.112 247.99 272.633 247.99 287.172C247.99 298.212 240.477 308.122 230.82 310.262L172.8 319.012C160.77 320.645 152.02 330.932 152.02 342.762C152.02 362.972 170.84 366.842 175.72 366.842C178.365 366.842 240.33 358.223 241.26 358.016C264.81 352.789 282.77 335.786 290.99 314.376C303.3 327.512 320.6 336.012 340 336.012C348.326 336.012 356.31 334.502 363.69 331.742C376 344.212 393.1 352.012 412 352.012C412.199 352.012 422.08 351.567 430.65 349.092C423.9 413.512 369.9 464.012 303.8 464.012ZM432 283.812C432 294.912 423 304.012 412 304.012C400.98 304.012 392 294.934 392 283.762V228.262C392 217.112 400.1 208.012 412 208.012C423.02 208.012 432 217.09 432 228.262V283.812Z" fill="white"/>
</svg>
