<svg width="222" height="159" viewBox="0 0 222 159" fill="none" xmlns="http://www.w3.org/2000/svg">
<g clip-path="url(#clip0_47_2)">
<path d="M118.7 4.50009C118 5.00009 117.4 5.6001 116.8 6.2001L9.19995 102L46.7999 150.2L155 53.9001C161.4 48.9001 164.8 40.1001 163.2 29.9001C160.8 13.9001 147 0.600103 132.5 0.200103C127.1 0.000103127 122.4 1.60009 118.7 4.50009Z" fill="#754C24"/>
<path d="M45.1524 151.277C56.6316 143.805 58.4638 126.267 49.2449 112.103C40.026 97.9389 23.247 92.5137 11.7678 99.9853C0.288608 107.457 -1.54371 124.996 7.6752 139.16C16.8941 153.323 33.6732 158.749 45.1524 151.277Z" fill="#A67C52"/>
<path d="M8.80005 117.7C9.00005 116 9.40007 114.3 10.1001 112.6C10.8001 111 11.8001 109.5 13.0001 108.1C14.2001 106.8 15.7001 105.7 17.2001 104.9C18.8001 104.1 20.5 103.6 22.3 103.3C25.9 102.8 29.5001 103.6 32.7001 105C35.9001 106.5 38.7001 108.8 40.9001 111.4C38.4001 109 35.5001 107 32.4001 105.7C30.8001 105.1 29.2001 104.6 27.5001 104.3C27.1001 104.2 26.7001 104.2 26.2001 104.1C25.8001 104.1 25.4001 104 24.9001 104H23.6001C23.4001 104 23.2001 104 23.0001 104.1L22.4001 104.2C19.1001 104.6 15.9001 106.1 13.5001 108.5C12.3001 109.7 11.3001 111.1 10.5001 112.6C9.80006 114.3 9.20005 116 8.80005 117.7Z" fill="#8C6239"/>
<path d="M47.9001 132.9C47.7001 134.6 47.3001 136.3 46.6001 137.9C45.9001 139.5 45.0001 141 43.9001 142.3C42.7001 143.6 41.3 144.7 39.8 145.5C38.3 146.3 36.6 146.9 34.8 147.2L33.5001 147.3C33.4001 147.3 33.3001 147.3 33.2001 147.3H32.9001H32.2001C32.0001 147.3 31.8001 147.3 31.5001 147.3H30.8C30.4 147.3 29.9001 147.2 29.5001 147.2C29.1001 147.1 28.6001 147.1 28.2001 147L27.6001 146.8L27.3 146.7L27.0001 146.6C26.6001 146.5 26.2 146.4 25.8 146.2C25.6 146.1 25.4001 146.1 25.2001 146L24.6001 145.8C24.2001 145.6 23.8001 145.4 23.4001 145.3C23.0001 145.1 22.6 144.9 22.3 144.7C21.6 144.3 20.8001 143.8 20.1001 143.3C18.7001 142.3 17.5 141.1 16.3 139.8C17.6 140.9 18.9 142 20.3 142.9C21.7 143.8 23.2 144.6 24.8 145.1C26.4 145.7 28.0001 146.1 29.6001 146.3C30.0001 146.3 30.4 146.4 30.8 146.4H31.4001C31.6001 146.4 31.8001 146.4 32.0001 146.4H32.6001H32.9001C33.0001 146.4 33.1001 146.4 33.2001 146.4L34.4001 146.3C37.7001 145.8 40.7001 144.2 43.0001 141.8C44.2001 140.6 45.1001 139.2 45.9001 137.7C46.9001 136.1 47.5001 134.5 47.9001 132.9Z" fill="#8C6239"/>
<path d="M32.1 142C30.1 142.3 28 142.1 26 141.5C25.8 141.4 25.5 141.4 25.3 141.3L24.6 141C24.1 140.8 23.7 140.6 23.2 140.3C22.3 139.8 21.4 139.2 20.6 138.6C20.4 138.4 20.2 138.3 20 138.1L19.4 137.6C19.2 137.4 19 137.2 18.8 137.1C18.6 136.9 18.4 136.7 18.3 136.5C18 136.1 17.6 135.7 17.3 135.3C17 134.9 16.7 134.5 16.4 134C15.3 132.3 14.4 130.4 14 128.4C14.9 130.2 15.9 132 17.1 133.5L18 134.7C18.3 135.1 18.7 135.4 19 135.8C19.4 136.1 19.7 136.5 20.1 136.8L20.7 137.3C20.9 137.5 21.1 137.6 21.3 137.8C22.1 138.4 22.9 139 23.7 139.5C24.1 139.7 24.5 140 25 140.2L25.7 140.5C25.9 140.6 26.2 140.7 26.4 140.8C28.1 141.5 30.1 141.9 32.1 142Z" fill="#8C6239"/>
<path d="M41.8 119.8C42.7 121.2 43.4 122.7 43.8 124.3C44.2 125.9 44.4 127.6 44.3 129.3C44.2 131 43.8001 132.7 43.2001 134.2C42.9001 135 42.5001 135.7 42.0001 136.4C41.5001 137.1 40.9 137.7 40.3 138.2C40.8 137.5 41.2001 136.8 41.6001 136.1L41.9001 135.6L42.1001 135C42.2001 134.8 42.2 134.6 42.3 134.4C42.4 134.2 42.4001 134 42.5001 133.8C43.0001 132.3 43.3001 130.7 43.4001 129.1C43.5001 127.5 43.4001 125.9 43.1001 124.3C42.7001 123 42.3 121.4 41.8 119.8Z" fill="#8C6239"/>
<path d="M25.5 112.4C25.7 112.3 25.9 112.3 26.1 112.3C26.3 112.3 26.5 112.2 26.7 112.2C26.9 112.2 27.1 112.2 27.3 112.2C27.5 112.2 27.7 112.2 27.9 112.2C28.7 112.2 29.5 112.4 30.2 112.7C31 113 31.7 113.3 32.3 113.8C32.9 114.3 33.5 114.8 34 115.4C33.3 115.1 32.6 114.8 31.9 114.5C31.2 114.2 30.5 113.9 29.8 113.7C29.1 113.5 28.4 113.2 27.7 113.1C27.3 113 27 112.9 26.6 112.8C26.3 112.6 25.9 112.5 25.5 112.4Z" fill="#8C6239"/>
<path d="M16.6001 121.7C16.5001 120.9 16.5001 120 16.7001 119.2C16.9001 118.4 17.2001 117.6 17.6001 116.8C18.0001 116.1 18.6001 115.4 19.2001 114.8C19.8001 114.2 20.6001 113.8 21.4001 113.6C20.8001 114.2 20.3001 114.8 19.8001 115.4C19.3001 116 18.9001 116.6 18.5001 117.3C18.1001 118 17.8001 118.7 17.5001 119.4C17.1001 120.2 16.9001 120.9 16.6001 121.7Z" fill="#8C6239"/>
<path d="M39.1 122.3C40 124 40.5 125.9 40.5 127.9C40.6 129.9 40.1 131.9 39.1 133.6C38.6 134.5 38 135.3 37.3 135.9C37.1 136.1 36.9 136.2 36.7 136.4C36.5 136.5 36.3 136.7 36.1 136.8C35.7 137.1 35.2 137.3 34.8 137.5C33.9 137.9 32.9 138.1 31.9 138.2C31.7 138.2 31.4 138.2 31.2 138.2H30.8H30.4C29.9 138.2 29.4 138 29 138H29.7C29.9 138 30.2 138 30.4 138H30.8H31.1C31.3 138 31.6 137.9 31.8 137.9C32 137.9 32.3 137.8 32.5 137.7C32.7 137.6 32.9 137.6 33.2 137.5C33.6 137.4 34.1 137.2 34.5 137C35.3 136.6 36.1 136 36.7 135.4C37 135.1 37.3 134.7 37.6 134.4C37.9 134 38.1 133.7 38.3 133.3C38.8 132.5 39.1 131.7 39.3 130.8C39.6 129.9 39.7 129 39.7 128.1C39.9 126 39.6 124.2 39.1 122.3Z" fill="#8C6239"/>
<path d="M26.0001 133C23.1001 131.7 20.8001 128.8 20.1001 125.6C19.7001 124 19.8001 122.2 20.3001 120.6L20.5001 120C20.6001 119.8 20.7001 119.6 20.8001 119.4C20.9001 119.2 21.0001 119 21.1001 118.9L21.3001 118.6L21.5001 118.4C21.8001 118.1 22.1001 117.8 22.4001 117.5L22.9001 117.1C23.1001 117 23.3001 116.9 23.5001 116.8C24.3001 116.4 25.1001 116.2 26.0001 116.1C26.2001 116.1 26.4001 116.1 26.6001 116.1C26.7001 116.1 26.8001 116.1 26.9001 116.1H27.2001C27.4001 116.1 27.6001 116.1 27.8001 116.2L28.4001 116.3C28.6001 116.3 28.8001 116.4 29.0001 116.5C29.2001 116.6 29.4001 116.6 29.6001 116.7L30.2001 116.9L30.8001 117.2C31.0001 117.3 31.2001 117.4 31.3001 117.5C31.5001 117.6 31.7001 117.7 31.8001 117.9C32.1001 118.2 32.5001 118.4 32.8001 118.7C34.0001 119.8 34.9001 121.2 35.6001 122.7C35.9001 123.5 36.1001 124.3 36.2001 125.1C36.3001 125.9 36.3001 126.7 36.2001 127.5C36.2001 127.1 36.2001 126.7 36.1001 126.3C36.1001 125.9 36.0001 125.5 35.9001 125.1C35.7001 124.3 35.4001 123.6 35.1001 122.9C34.4001 121.5 33.4001 120.2 32.3001 119.2C31.1001 118.2 29.7001 117.5 28.3001 117.1C27.6001 116.9 26.8001 116.9 26.1001 117C25.4001 117.1 24.6001 117.3 24.0001 117.6C23.8001 117.7 23.7001 117.8 23.5001 117.9L23.1001 118.2C22.8001 118.4 22.5001 118.7 22.3001 119C21.8001 119.6 21.4001 120.2 21.2001 120.9C21.2001 121 21.1001 121.1 21.1001 121.2L21.0001 121.5L20.9001 121.8C20.9001 121.9 20.9001 122 20.8001 122.1C20.8001 122.3 20.7001 122.5 20.7001 122.7L20.6001 123.3C20.6001 124.1 20.6001 124.8 20.7001 125.6C21.0001 127.1 21.6001 128.6 22.4001 129.9C23.5001 131 24.7001 132.2 26.0001 133Z" fill="#8C6239"/>
<path d="M63.3 126.2C70.1 119.8 77.0001 113.5 83.9001 107.2C87.3001 104.1 90.8 100.9 94.3 97.7999L104.7 88.4999L115.2 79.2C118.7 76.1 122.2 72.9999 125.7 69.9999C132.7 63.8999 139.8 57.7 146.9 51.7C140.1 58.1 133.2 64.4 126.3 70.7C122.9 73.9 119.4 76.9999 115.9 80.0999L105.5 89.4L95.0001 98.7C91.5001 101.8 88.0001 104.9 84.5001 107.9C77.5001 114 70.4 120.2 63.3 126.2Z" fill="#603813"/>
<path d="M98.1001 78.2001C102.1 74.3001 106.1 70.5001 110.1 66.8001C112.1 64.9001 114.2 63.1001 116.2 61.2001L122.4 55.7001L128.6 50.2001C130.7 48.4001 132.8 46.6001 134.9 44.8001C139.1 41.2001 143.3 37.6001 147.6 34.1001C143.6 38.0001 139.6 41.8001 135.6 45.5001C133.6 47.4001 131.5 49.2001 129.5 51.1001L123.3 56.6001L117.1 62.1001C115 63.9001 112.9 65.7001 110.8 67.5001C106.6 71.1001 102.4 74.7001 98.1001 78.2001Z" fill="#603813"/>
<path d="M53.3 99.6C57.3 95.7 61.3 91.9 65.3 88.2C67.3 86.3 69.4001 84.5 71.4001 82.6L77.6001 77.1L83.8 71.6C85.9 69.8 88.0001 68 90.1001 66.2C94.3001 62.6 98.5 59 102.8 55.5C98.8 59.4 94.8 63.2 90.8 66.9C88.8 68.8 86.7001 70.6 84.7001 72.5L78.5001 78L72.3 83.5C70.2 85.3 68.1001 87.1 66.0001 88.9C61.9001 92.6 57.6 96.1 53.3 99.6Z" fill="#603813"/>
<path d="M27.8 89.5001C29.2 87.9001 30.7 86.3 32.3 84.8C33.8 83.3 35.4001 81.8001 37.0001 80.4001C38.6001 79.0001 40.2001 77.6001 41.9001 76.2001C43.6001 74.8001 45.3001 73.5 47.0001 72.3C45.6001 73.9 44.1001 75.5001 42.5001 77.0001C41.0001 78.5001 39.4 80.0001 37.8 81.4001C36.2 82.8001 34.6001 84.2 32.9001 85.6C31.3001 87 29.6 88.3001 27.8 89.5001Z" fill="#603813"/>
<path d="M68.5 65.5001C72.8 61.3001 77.2 57.2001 81.6 53.2001C83.8 51.2001 86 49.2001 88.2 47.1001L94.9 41.1001L101.6 35.1001C103.9 33.1001 106.1 31.1001 108.4 29.2001C112.9 25.3001 117.5 21.4001 122.1 17.6001C117.8 21.8001 113.4 25.9001 109 29.9001C106.8 31.9001 104.6 33.9001 102.4 36.0001L95.7 42.0001L89 48.0001C86.7 50.0001 84.5 52.0001 82.2 53.9001C77.7 57.9001 73.2 61.8001 68.5 65.5001Z" fill="#603813"/>
<path d="M82.9001 40.2C85.2001 37.8 87.6002 35.5 90.1002 33.2C91.3002 32 92.6001 30.9 93.8001 29.8L97.5002 26.4L101.3 23.1C102.6 22 103.8 20.9 105.1 19.8C107.7 17.6 110.2 15.5 112.9 13.5C110.6 15.9 108.2 18.3 105.7 20.5C104.5 21.7 103.2 22.8 102 23.9L98.3001 27.3L94.5002 30.6C93.2002 31.7 92.0002 32.8 90.7002 33.9C88.1002 36 85.5001 38.1 82.9001 40.2Z" fill="#603813"/>
<path d="M23.8999 63.6001C24.6999 63.3001 25.4999 63.1001 26.3999 62.9001L164.8 22.9001L185.6 80.4001L46.4999 120.6C38.8999 123.4 29.5999 121.5 21.7999 114.8C9.49992 104.2 5.59993 85.5001 12.9999 73.0001C15.5999 68.3001 19.4999 65.2001 23.8999 63.6001Z" fill="#754C24"/>
<path d="M187.303 79.6247C199.743 73.8941 204.097 56.8046 197.026 41.4544C189.955 26.1042 174.137 18.3061 161.697 24.0368C149.256 29.7675 144.903 46.8569 151.974 62.207C159.045 77.5572 174.862 85.3554 187.303 79.6247Z" fill="#A67C52"/>
<path d="M178.2 30.9003C176.6 30.3003 174.9 29.9003 173.1 29.8003C171.4 29.6003 169.7 29.8002 168 30.1002C164.7 30.8002 161.7 32.7003 159.6 35.3003L159.2 35.8003C159.1 36.0003 158.9 36.1003 158.8 36.3003L158.1 37.4003C157.9 37.8003 157.7 38.1003 157.5 38.5003C157.3 38.9003 157.1 39.3003 157 39.7003C156.3 41.3003 155.9 42.9002 155.6 44.6002C155 48.0002 155.2 51.5003 155.9 54.9003C154.8 51.6003 154.4 48.0003 154.8 44.5003C155.3 41.0003 156.6 37.5003 158.9 34.8003C160 33.4003 161.4 32.2003 162.9 31.3003C164.4 30.4003 166.1 29.7003 167.9 29.4003C169.7 29.1003 171.5 29.1003 173.2 29.4003C175 29.6003 176.7 30.1003 178.2 30.9003Z" fill="#8C6239"/>
<path d="M170.3 72.1002C171.9 72.6002 173.6 73.0002 175.2 73.2002C176.9 73.4002 178.5 73.3002 180.2 72.9002C183.4 72.2002 186.4 70.5002 188.6 68.0002L189.4 67.0002C189.5 66.9002 189.5 66.8002 189.6 66.8002L189.8 66.5002L190.1 66.0002C190.2 65.8002 190.3 65.7002 190.4 65.5002L190.7 65.0002C190.9 64.6002 191.1 64.3002 191.3 63.9002C192 62.4002 192.5 60.8002 192.9 59.2002C193.2 57.6002 193.4 55.9002 193.4 54.2002C193.4 52.5002 193.2 50.8002 193 49.2002C193.5 50.8002 193.8 52.5002 193.9 54.2002C194 55.1002 194 55.9002 193.9 56.8002C193.9 57.2002 193.9 57.7002 193.8 58.1002C193.7 58.5002 193.7 59.0002 193.6 59.4002L193.5 60.0002C193.5 60.2002 193.4 60.4002 193.4 60.6002C193.3 61.0002 193.2 61.4002 193.1 61.9002L193 62.2002L192.9 62.5002L192.7 63.1002C192.5 63.5002 192.4 63.9002 192.2 64.3002C192 64.7002 191.8 65.1002 191.6 65.5002L191.3 66.1002C191.2 66.3002 191.1 66.5002 190.9 66.7002L190.5 67.2002L190.3 67.5002C190.2 67.6002 190.2 67.7002 190.1 67.8002L189.3 68.8002C188.1 70.1002 186.8 71.2002 185.2 72.1002C183.7 73.0002 182 73.6002 180.3 73.8002C178.6 74.1002 176.8 74.1002 175.1 73.8002C173.4 73.3002 171.8 72.8002 170.3 72.1002Z" fill="#8C6239"/>
<path d="M186.4 63.6003C187.4 61.8003 188.1 59.9003 188.4 58.0003C188.4 57.8003 188.5 57.5003 188.5 57.3003L188.6 56.6003C188.7 56.1003 188.7 55.6003 188.7 55.1003C188.7 54.1003 188.7 53.1003 188.6 52.2003C188.6 52.0003 188.5 51.7003 188.5 51.5003L188.4 50.8003C188.3 50.3003 188.2 49.8003 188.1 49.4003C188 48.9003 187.8 48.4003 187.7 48.0003L187.2 46.6003C186.5 44.7003 185.6 43.0003 184.5 41.3003C185.9 42.7003 187.1 44.5003 187.9 46.3003C188.1 46.8003 188.3 47.2003 188.5 47.7003C188.7 48.2003 188.8 48.7003 189 49.2003C189.1 49.4003 189.1 49.7003 189.2 50.0003C189.3 50.3003 189.3 50.5003 189.4 50.8003L189.5 51.6003C189.5 51.9003 189.6 52.1003 189.6 52.4003C189.7 53.4003 189.7 54.5003 189.7 55.5003C189.7 56.0003 189.6 56.5003 189.5 57.0003L189.4 57.8003C189.4 58.1003 189.3 58.3003 189.2 58.6003C188.7 60.2003 187.7 62.1003 186.4 63.6003Z" fill="#8C6239"/>
<path d="M162.5 59.9004C163.5 61.2004 164.6 62.4004 165.8 63.4004C167 64.5004 168.3 65.4004 169.7 66.2004C171.1 67.0004 172.6 67.6004 174.1 68.0004C174.3 68.1004 174.5 68.1003 174.7 68.1003C174.9 68.1003 175.1 68.2004 175.3 68.2004L175.9 68.3004L176.5 68.4004C177.3 68.5004 178.1 68.5004 178.9 68.4004C178.1 68.7004 177.3 68.8004 176.5 68.9004C175.7 69.0004 174.8 68.9004 174 68.8004C172.3 68.6004 170.7 68.0003 169.3 67.1003C167.8 66.3003 166.5 65.2004 165.4 64.0004C164.2 62.8004 163.2 61.4004 162.5 59.9004Z" fill="#8C6239"/>
<path d="M164.9 42.2002C164.8 42.6002 164.6 42.9002 164.5 43.3002C164.4 43.7002 164.2 44.0002 164.1 44.4002C163.9 45.1002 163.7 45.8002 163.5 46.5002C163.3 47.2002 163.2 47.9002 163.1 48.7002C163 49.4002 162.9 50.2002 162.8 51.0002C162.5 50.3002 162.4 49.5002 162.3 48.7002C162.3 47.9002 162.3 47.1002 162.5 46.3002C162.7 45.5002 163 44.8002 163.3 44.1002C163.4 43.9002 163.5 43.8002 163.6 43.6002C163.7 43.4002 163.8 43.3002 163.9 43.1002C164 42.9002 164.2 42.8002 164.3 42.7002C164.6 42.5002 164.8 42.3002 164.9 42.2002Z" fill="#8C6239"/>
<path d="M177.5 39.6002C176.7 39.4002 175.9 39.2002 175.1 39.1002C174.3 39.0002 173.6 38.9002 172.8 38.8002C172 38.8002 171.3 38.8002 170.5 38.9002C169.7 39.0002 168.9 39.1002 168.1 39.3002C168.7 38.7002 169.5 38.3002 170.3 38.1002C171.1 37.8002 172 37.7002 172.8 37.8002C173.7 37.8002 174.5 38.0002 175.3 38.3002C176.1 38.7002 176.9 39.1002 177.5 39.6002Z" fill="#8C6239"/>
<path d="M166 59.0004C167.3 60.4004 168.8 61.6004 170.4 62.5004C171.2 62.9004 172 63.3003 172.9 63.6003C173.8 63.9003 174.7 64.0003 175.6 64.1003C176.1 64.1003 176.5 64.1003 177 64.1003C177.4 64.1003 177.9 64.0004 178.3 63.9004C179.2 63.7004 180 63.3004 180.8 62.9004C181.2 62.7004 181.6 62.4003 181.9 62.1003C182.1 62.0003 182.3 61.8004 182.4 61.7004C182.6 61.5004 182.7 61.4004 182.9 61.2004C183.1 61.0004 183.2 60.9004 183.4 60.7004L183.6 60.4004L183.8 60.1003C184 59.9003 184.1 59.7004 184.2 59.5004L184.6 58.9004C184.4 59.3004 184.3 59.8004 184 60.2004L183.8 60.5004L183.6 60.8004C183.5 61.0004 183.3 61.2004 183.2 61.4004C182.6 62.2004 181.9 62.9004 181.1 63.5004C180.7 63.8004 180.3 64.0004 179.8 64.2004C179.6 64.3004 179.3 64.4004 179.1 64.5004C178.9 64.6004 178.6 64.7004 178.4 64.7004C177.4 65.0004 176.4 65.1004 175.4 65.0004C173.4 64.9004 171.5 64.2003 169.8 63.1003C168.3 62.1003 167 60.7004 166 59.0004Z" fill="#8C6239"/>
<path d="M182 53.6001C182 52.0001 181.7 50.4001 181 49.0001C180.4 47.6001 179.4 46.3001 178.3 45.2001C177.7 44.7001 177.1 44.2001 176.4 43.9001L175.9 43.6001C175.7 43.5001 175.5 43.5001 175.4 43.4001C175.3 43.4001 175.2 43.3001 175.1 43.3001L174.8 43.2001L174.5 43.1001C174.4 43.1001 174.3 43.1001 174.2 43.0001C173.5 42.8001 172.7 42.8001 172 42.9001C171.6 42.9001 171.3 43.1001 170.9 43.2001L170.4 43.4001C170.2 43.5001 170.1 43.6001 169.9 43.7001C169.3 44.1001 168.7 44.6001 168.2 45.1001C167.8 45.7001 167.4 46.4001 167.1 47.1001C166.6 48.5001 166.5 50.1001 166.7 51.6001C166.9 53.1001 167.5 54.6001 168.3 55.9001C168.7 56.6001 169.2 57.2001 169.7 57.8001C170 58.1001 170.3 58.4001 170.6 58.6001C170.9 58.9001 171.2 59.1001 171.6 59.3001C170.9 59.0001 170.2 58.5001 169.6 58.0001C169 57.5001 168.4 56.9001 167.9 56.2001C167 54.9001 166.2 53.3001 165.9 51.7001C165.8 51.3001 165.8 50.9001 165.7 50.5001C165.7 50.3001 165.7 50.1001 165.7 49.9001C165.7 49.7001 165.7 49.5001 165.7 49.3001V48.7001L165.8 48.1001C165.8 47.9001 165.9 47.7001 165.9 47.5001C166 47.3001 166 47.1001 166.1 46.9001L166.3 46.3001C166.4 46.1001 166.5 45.9001 166.6 45.7001L166.7 45.4001C166.8 45.3001 166.8 45.2001 166.9 45.1001C167 44.9001 167.1 44.7001 167.3 44.6001C167.8 43.9001 168.5 43.3001 169.2 42.9001C169.4 42.8001 169.6 42.7001 169.8 42.6001L170.4 42.4001C170.8 42.3001 171.2 42.2001 171.7 42.1001H172H172.3C172.5 42.1001 172.7 42.1001 172.9 42.1001C173.1 42.1001 173.3 42.1001 173.5 42.2001L174.1 42.3001C175.8 42.7001 177.3 43.6001 178.4 44.8001C181.2 47.0001 182.5 50.4001 182 53.6001Z" fill="#8C6239"/>
<path d="M156.4 81.5002C147.5 84.3002 138.6 87.0003 129.6 89.7003C125.1 91.0003 120.7 92.3003 116.2 93.7003L102.8 97.6002L89.2998 101.4C84.7998 102.7 80.2998 103.9 75.7998 105.2C66.7998 107.7 57.7998 110.1 48.7998 112.5C57.6998 109.7 66.5998 107 75.5998 104.3C80.0998 103 84.4998 101.7 88.9998 100.3L102.4 96.4003L115.9 92.6002C120.4 91.3002 124.9 90.1002 129.4 88.8002C138.4 86.3002 147.4 83.8002 156.4 81.5002Z" fill="#603813"/>
<path d="M97.1999 85.4004C91.9999 87.2004 86.6999 88.8004 81.3999 90.5004C78.7999 91.3004 76.0999 92.1004 73.4999 92.9004L65.4999 95.2004L57.4999 97.5004C54.7999 98.2004 52.1999 99.0004 49.4999 99.7004C44.1999 101.1 38.7999 102.5 33.3999 103.8C38.5999 102 43.8999 100.4 49.1999 98.7004C51.7999 97.9004 54.4999 97.1004 57.0999 96.3004L65.0999 94.0004L73.0999 91.7004C75.7999 91.0004 78.3999 90.2004 81.0999 89.5004C86.4999 88.1004 91.7999 86.7004 97.1999 85.4004Z" fill="#603813"/>
<path d="M139.2 59.0002C134 60.8002 128.7 62.4002 123.4 64.1002C120.8 64.9002 118.1 65.7002 115.5 66.5002L107.5 68.8002L99.4999 71.1002C96.7999 71.8002 94.1999 72.6002 91.4999 73.3002C86.1999 74.7002 80.7999 76.1003 75.3999 77.4003C80.5999 75.6003 85.8999 74.0002 91.1999 72.3002C93.7999 71.5002 96.4999 70.7003 99.0999 69.9003L107.1 67.6002L115.1 65.3002C117.8 64.6002 120.4 63.8002 123.1 63.1002C128.5 61.6002 133.8 60.2002 139.2 59.0002Z" fill="#603813"/>
<path d="M144.3 32.0002C142.3 32.8002 140.3 33.6003 138.2 34.2003C136.2 34.9003 134.1 35.5002 132 36.1002C129.9 36.7002 127.9 37.3002 125.8 37.8002C123.7 38.3002 121.6 38.8002 119.5 39.1002C121.5 38.3002 123.5 37.5002 125.6 36.8002C127.6 36.1002 129.7 35.5003 131.8 34.9003C133.9 34.3003 135.9 33.7002 138 33.3002C140.1 32.8002 142.2 32.3002 144.3 32.0002Z" fill="#603813"/>
<path d="M102.3 53.6001C96.5998 55.5001 90.8998 57.3001 85.1998 59.0001C82.2998 59.9001 79.4998 60.7001 76.5998 61.6001L67.9998 64.1001L59.3998 66.6001C56.4998 67.4001 53.5998 68.2001 50.6998 69.0001C44.8998 70.6001 39.0998 72.1001 33.2998 73.5001C38.9998 71.6001 44.6998 69.8001 50.3998 68.1001C53.2998 67.2001 56.0998 66.4001 58.9998 65.5001L67.5998 63.0001L76.1998 60.5001C79.0998 59.7001 81.9998 58.9001 84.8998 58.1001C90.6998 56.6001 96.4998 55.1001 102.3 53.6001Z" fill="#603813"/>
<path d="M73.1999 52.3003C70.0999 53.5003 66.8999 54.5003 63.6999 55.5003C62.0999 56.0003 60.4998 56.5003 58.8998 57.0003L54.0999 58.4003L49.2998 59.8003C47.6998 60.2003 46.0998 60.7003 44.3998 61.1003C41.1998 61.9003 37.8999 62.7003 34.5999 63.4003C37.6999 62.2003 40.8999 61.2003 44.0999 60.2003C45.6999 59.7003 47.2998 59.2003 48.8998 58.7003L53.6999 57.3003L58.4998 55.9003C60.0998 55.5003 61.6998 55.0003 63.3998 54.6003C66.6998 53.7003 69.8999 52.9003 73.1999 52.3003Z" fill="#603813"/>
<path d="M165.7 88.5001C165.3 88.0001 164.8 87.6 164.3 87.1L88.5999 11.3L52.3999 61.7001L128.5 137.8C132.5 142.5 139.3 143.2 147.1 138.7C159.3 131.6 169.3 114.4 169.3 100.3C169.3 95.3 168 91.2001 165.7 88.5001Z" fill="#8C6239"/>
<path d="M86.5528 46.0643C95.2237 31.0464 95.2351 14.8201 86.5782 9.82194C77.9214 4.82376 63.8745 12.9464 55.2037 27.9643C46.5328 42.9823 46.5214 59.2085 55.1782 64.2067C63.8351 69.2049 77.8819 61.0823 86.5528 46.0643Z" fill="#A67C52"/>
<path d="M76.5999 15.7001C78.0999 15.3001 79.6998 15.3001 81.2998 15.7001C82.0998 15.9001 82.7998 16.2001 83.4998 16.7001C84.1998 17.1001 84.7998 17.7001 85.2998 18.3001C86.3998 19.5001 87.0998 21.1001 87.4998 22.6001C87.8998 24.2001 88.0999 25.8002 88.0999 27.4002C88.0999 29.0002 87.8999 30.6001 87.5999 32.1001C87.2999 33.7001 86.8998 35.2001 86.2998 36.7001C85.1998 39.7001 83.6998 42.5001 81.8998 45.0001C83.3998 42.3001 84.6999 39.4002 85.5999 36.4002C86.0999 34.9002 86.3999 33.4002 86.6999 31.9002C86.9999 30.4002 87.0999 28.9001 87.0999 27.3001C87.0999 26.5001 87.0998 25.8001 86.9998 25.0001C86.8998 24.2001 86.7999 23.5001 86.5999 22.8001C86.1999 21.3001 85.5999 19.9001 84.6999 18.8001C84.1999 18.2001 83.6999 17.7001 83.0999 17.2001C82.4999 16.8001 81.7999 16.4001 81.0999 16.1001C79.6999 15.6001 78.1999 15.5001 76.5999 15.7001Z" fill="#8C6239"/>
<path d="M65.7999 57.8001C64.2999 58.2001 62.7 58.2001 61.2 57.8001C60.4 57.6001 59.6999 57.3001 58.9999 56.9001C58.2999 56.5001 57.7 56.0001 57.2 55.4001C56.1 54.2001 55.3999 52.8001 54.8999 51.3001C54.3999 49.8001 54.2 48.2001 54.2 46.7001C54.2 45.1001 54.2999 43.6001 54.5999 42.1001C54.8999 40.6001 55.2999 39.1001 55.7999 37.6001C56.7999 34.7001 58.1999 31.9001 59.8999 29.4001C58.4999 32.1001 57.3999 34.9001 56.4999 37.8001C56.0999 39.2001 55.6999 40.7001 55.4999 42.2001C55.2999 43.7001 55.2 45.2001 55.2 46.7001C55.2 48.2001 55.3999 49.7001 55.7999 51.1001C56.1999 52.5001 56.8 53.9001 57.7 55.0001C58.6 56.1001 59.8 57.0001 61.2 57.5001C62.7 57.9001 64.1999 58.0001 65.7999 57.8001Z" fill="#8C6239"/>
<path d="M58.4 45.3002C58.1 43.3002 58.2 41.2002 58.6 39.1002C58.7 38.8002 58.7 38.6002 58.8 38.3002L59 37.5002C59.1 37.0002 59.3 36.5002 59.5 36.0002C59.7 35.5002 59.9 35.0002 60.1 34.5002C60.3 34.0002 60.5 33.6002 60.7 33.1002C61.2 32.2002 61.7 31.3002 62.2 30.4002C62.8 29.5002 63.4 28.7002 64 27.9002C65.3 26.3002 66.8 24.8002 68.5 23.7002C67.1 25.2002 65.8 26.7002 64.6 28.4002L64.2 29.0002C64.1 29.2002 63.9 29.4002 63.8 29.6002L63.4 30.2002C63.3 30.4002 63.1 30.6002 63 30.8002C62.5 31.7002 62 32.5002 61.6 33.5002C61.2 34.4002 60.8 35.3002 60.4 36.3002C60.2 36.8002 60 37.2002 59.9 37.7002C59.7 38.2002 59.6 38.7002 59.5 39.1002C58.8 41.3002 58.5 43.3002 58.4 45.3002Z" fill="#8C6239"/>
<path d="M75.6 48.1001C74.8 49.2001 73.8 50.2001 72.8 51.0001C71.7 51.8001 70.5 52.5001 69.3 53.1001C68 53.6001 66.6 53.9001 65.2 53.8001C64.5 53.7001 63.8 53.6001 63.2 53.3001C62.6 53.0001 62 52.6001 61.5 52.1001C62.7 52.7001 64 53.0001 65.2 53.0001C66.5 53.0001 67.7 52.7001 68.9 52.2001C70.1 51.7001 71.2 51.1001 72.4 50.4001C73.5 49.7001 74.5 48.9001 75.6 48.1001Z" fill="#8C6239"/>
<path d="M81 30.2002C81.1 30.4002 81.1 30.6002 81.2 30.8002C81.3 31.0002 81.3 31.2002 81.3 31.4002C81.4 31.8002 81.4 32.2002 81.4 32.6002C81.4 33.4002 81.3 34.2002 81.1 35.0002C80.9 35.8002 80.6 36.5002 80.3 37.3002C80 38.0002 79.5 38.7002 79 39.3002C79.2 38.5002 79.4 37.8002 79.6 37.0002C79.8 36.3002 80 35.5002 80.2 34.8002C80.4 34.1002 80.5 33.3002 80.7 32.6002L80.9 31.5002C80.8 31.0002 80.9 30.6002 81 30.2002Z" fill="#8C6239"/>
<path d="M73.7 24.3C74.2 23.9 74.7999 23.7 75.4999 23.6C76.0999 23.5 76.7999 23.6 77.3999 23.8C77.9999 24 78.5999 24.4 79.0999 24.8C79.5999 25.3 79.8999 25.9 79.9999 26.5C79.4999 26.1 79.0999 25.7001 78.5999 25.4001C78.0999 25.1001 77.5999 24.9001 77.0999 24.7001C76.5999 24.5001 75.9999 24.4001 75.4999 24.4001C74.8999 24.4001 74.3 24.4 73.7 24.3Z" fill="#8C6239"/>
<path d="M73.7001 46.3C72.7001 47.5 71.4001 48.5001 69.9001 49.2001C69.2001 49.5001 68.4001 49.8001 67.5001 49.9001C66.7001 50.0001 65.8001 49.9001 65.0001 49.7001C64.2001 49.4001 63.4001 48.9 62.9001 48.3C62.6001 48 62.4001 47.6 62.2001 47.3C62.1001 47.1 62.0001 46.9001 61.9001 46.7001C61.8001 46.5001 61.7001 46.3 61.7001 46.1C61.2001 44.5 61.2001 42.9 61.6001 41.3C61.7001 42.9 61.9001 44.4 62.5001 45.8C62.8001 46.5 63.2001 47.1 63.7001 47.6C63.9001 47.9 64.2001 48.1 64.5001 48.3C64.8001 48.5 65.1001 48.6 65.5001 48.8C65.8001 48.9 66.2001 49.0001 66.5001 49.0001C66.9001 49.0001 67.2001 49.0001 67.6001 49.0001C68.3001 48.9001 69.1 48.8001 69.8 48.5001C71 48.0001 72.3001 47.2 73.7001 46.3Z" fill="#8C6239"/>
<path d="M65.2 36.8002C65.6 35.4002 66.1999 34.0002 66.9999 32.7002C67.7999 31.4002 68.7999 30.3002 69.9999 29.3002C70.1999 29.2002 70.2999 29.1002 70.4999 29.0002L70.9999 28.7002C71.2999 28.5002 71.6999 28.3002 71.9999 28.2002C72.6999 27.9002 73.4999 27.7002 74.2999 27.7002C75.0999 27.7002 75.9999 28.0002 76.5999 28.6002C77.2999 29.2002 77.6999 29.9002 77.8999 30.7002C78.0999 31.5002 78.2 32.3002 78.2 33.0002C78.2 33.4002 78.1999 33.8002 78.0999 34.2002C78.0999 34.4002 78.0999 34.6002 77.9999 34.8002L77.8999 35.4002C77.8999 35.6002 77.7999 35.8002 77.7999 36.0002L77.5999 36.6002C77.4999 37.0002 77.4 37.3002 77.2 37.7002C77.1 38.1002 76.9 38.4002 76.7 38.7002C76.5 39.0002 76.3 39.4002 76.2 39.7002C75.4 41.0002 74.4999 42.2002 73.3999 43.2002L73.2 43.4002L72.9999 43.6002L72.5999 44.0002L72.0999 44.3002L71.8999 44.5002L71.7 44.6002C71.1 45.0002 70.3999 45.3002 69.5999 45.5002C70.2999 45.2002 70.8999 44.9002 71.4999 44.4002L71.7 44.2002L71.8999 44.0002L72.2999 43.7002L72.7 43.3002L72.8999 43.1002L73.0999 42.9002L73.4999 42.5002C73.5999 42.4002 73.6999 42.2002 73.7999 42.1002C73.9999 41.8002 74.1999 41.5002 74.4999 41.2002C74.6999 40.9002 74.8999 40.6002 75.0999 40.3002C75.2999 40.0002 75.4999 39.7002 75.5999 39.4002C76.2999 38.1002 76.7999 36.8002 77.0999 35.4002L77.2 34.9002C77.2 34.7002 77.1999 34.5002 77.2999 34.4002C77.3999 34.0002 77.2999 33.7002 77.3999 33.3002C77.3999 32.6002 77.2999 31.9002 77.0999 31.3002C76.8999 30.7002 76.5999 30.1002 76.0999 29.7002C75.5999 29.3002 74.9999 29.1002 74.3999 29.0002C73.6999 29.0002 73.0999 29.1002 72.3999 29.4002C71.7999 29.6002 71.0999 30.0002 70.4999 30.4002C69.2999 31.2002 68.2999 32.3002 67.3999 33.4002C66.4999 34.1002 65.8 35.4002 65.2 36.8002Z" fill="#8C6239"/>
<path d="M71.2 70.7002C76.3 75.4002 81.2999 80.2002 86.2999 85.0002C88.7999 87.4002 91.3 89.8002 93.7 92.3002L101.1 99.6002L108.4 107C110.8 109.5 113.3 111.9 115.7 114.4C120.5 119.4 125.4 124.4 130.1 129.4C125 124.7 120 119.9 115 115.1C112.5 112.7 110 110.3 107.6 107.8L100.2 100.5L92.8999 93.1002C90.4999 90.6002 87.9999 88.2002 85.5999 85.7002C80.6999 80.8002 75.9 75.8002 71.2 70.7002Z" fill="#754C24"/>
<path d="M108.8 90.3003C111.9 93.0003 114.9 95.8003 117.9 98.7003C119.4 100.1 120.9 101.5 122.3 103L126.7 107.3L131 111.7C132.4 113.2 133.9 114.6 135.3 116.1C138.1 119.1 141 122.1 143.7 125.1C140.6 122.4 137.6 119.6 134.6 116.7C133.1 115.3 131.6 113.8 130.2 112.4L125.8 108.1L121.5 103.7C120.1 102.2 118.6 100.8 117.2 99.3003C114.3 96.3003 111.5 93.3003 108.8 90.3003Z" fill="#754C24"/>
<path d="M91.3999 53.3003C94.4999 56.0003 97.4999 58.8003 100.5 61.7003C102 63.1003 103.5 64.5003 104.9 66.0003L109.3 70.3003L113.6 74.7003C115 76.2003 116.5 77.6003 117.9 79.1003C120.7 82.1003 123.6 85.1003 126.3 88.1003C123.2 85.4003 120.2 82.6003 117.2 79.7003C115.7 78.3003 114.2 76.8003 112.8 75.4003L108.4 71.1003L104.1 66.7003C102.7 65.2003 101.2 63.8003 99.7999 62.3003C96.8999 59.4003 94.0999 56.4003 91.3999 53.3003Z" fill="#754C24"/>
<path d="M98.5999 25.7002C99.8999 26.6002 101.1 27.7002 102.3 28.7002C103.5 29.8002 104.7 30.9002 105.8 32.0002C106.9 33.1002 108 34.3002 109.1 35.5002C110.2 36.7002 111.2 37.9002 112.1 39.2002C110.8 38.3002 109.6 37.2002 108.4 36.2002C107.2 35.1002 106 34.0002 104.9 32.9002C103.8 31.8002 102.7 30.6002 101.6 29.4002C100.6 28.2002 99.4999 27.0002 98.5999 25.7002Z" fill="#754C24"/>
<path d="M117.8 58.0002C121.1 61.0002 124.4 64.0002 127.6 67.1002C129.2 68.6002 130.8 70.2003 132.4 71.7003L137.2 76.4003L141.9 81.1002C143.5 82.7002 145 84.3003 146.6 85.9003C149.7 89.1003 152.7 92.3003 155.7 95.7003C152.4 92.7003 149.1 89.7002 145.9 86.6002C144.3 85.1002 142.7 83.5002 141.1 82.0002L136.4 77.3002L131.7 72.6002C130.1 71.0002 128.6 69.4002 127 67.8002C123.9 64.5002 120.8 61.3002 117.8 58.0002Z" fill="#754C24"/>
<path d="M137.6 64.4001C139.5 66.0001 141.4 67.6001 143.2 69.3001C145 71.0001 146.8 72.7001 148.6 74.5001C150.4 76.3001 152.1 78.0001 153.8 79.9001C155.5 81.7001 157.2 83.6001 158.7 85.5001C156.8 83.9001 154.9 82.3001 153.1 80.6001C151.3 78.9001 149.5 77.2001 147.7 75.4001C145.9 73.6001 144.2 71.9001 142.5 70.0001C140.9 68.1001 139.2 66.3001 137.6 64.4001Z" fill="#754C24"/>
<path d="M202.1 86.2002C201.3 86.2002 200.6 86.2002 199.8 86.2002L72.5998 88.3002L69.7998 157.4L197.7 155.2C204.9 155.7 212.2 150.6 217.1 140.8C224.7 125.3 223.2 103.7 213.8 92.5002C210.3 88.6002 206.3 86.5002 202.1 86.2002Z" fill="#754C24"/>
<path d="M93.7871 124.354C94.9516 105.281 86.0645 89.2196 73.9374 88.4792C61.8102 87.7388 51.0352 102.6 49.8707 121.673C48.7062 140.746 57.5932 156.807 69.7204 157.548C81.8476 158.288 92.6226 143.427 93.7871 124.354Z" fill="#A67C52"/>
<path d="M63.3 101.6C64.4 100.3 65.7 99.1001 67.3 98.2001C68.8 97.3001 70.6001 96.7001 72.4001 96.6001C74.2001 96.5001 76.0001 96.8001 77.7001 97.6001C79.3001 98.3001 80.8001 99.5001 82.0001 100.7C83.2001 102 84.2001 103.5 85.1001 105C85.9001 106.6 86.6001 108.2 87.1001 109.9C88.1001 113.3 88.5001 116.8 88.4001 120.3C88.1001 116.8 87.5001 113.4 86.4001 110.2C85.8001 108.6 85.2 107 84.3 105.5C83.5 104 82.5 102.6 81.3 101.4C80.1 100.2 78.8 99.1002 77.3 98.4002C75.8 97.7002 74.1001 97.3002 72.5001 97.4002C70.8001 97.5002 69.2001 97.9001 67.6001 98.7001C65.9001 99.3001 64.6 100.4 63.3 101.6Z" fill="#8C6239"/>
<path d="M80.6 143.5C79.5 144.8 78.2 146 76.8 146.9C75.3 147.8 73.7 148.4 71.9 148.6C70.2 148.8 68.4 148.5 66.7 147.8C65.1 147.1 63.6 146.1 62.4 144.9C61.2 143.7 60.1 142.3 59.3 140.8C58.4 139.3 57.7 137.7 57.2 136.1C56.1 132.8 55.6 129.4 55.7 126C56.1 129.4 56.8 132.7 58 135.8C58.6 137.4 59.3 138.9 60.2 140.3C60.4 140.7 60.6 141 60.9 141.3C61.1 141.6 61.4 142 61.6 142.3C62.1 142.9 62.6 143.6 63.2 144.1C64.4 145.2 65.7 146.2 67.2 146.9C68.7 147.6 70.3 147.8 71.9 147.8C73.5 147.7 75.1 147.2 76.6 146.5C78 145.7 79.3 144.7 80.6 143.5Z" fill="#8C6239"/>
<path d="M64.8 139.7C63.1 138.3 61.8001 136.4 60.9001 134.3C60.7001 133.8 60.5 133.3 60.3 132.7C60.1 132.2 60 131.6 59.8 131.1C59.7 130.6 59.5001 130 59.4001 129.5L59.1001 127.8C59.0001 127.2 59.0001 126.7 58.9001 126.1C58.9001 125.5 58.8 125 58.8 124.4C58.8 123.8 58.8 123.3 58.8 122.7C58.8 122.1 58.9001 121.6 58.9001 121C59.2001 118.8 59.7001 116.6 60.5001 114.5C60.0001 116.7 59.7001 118.9 59.6001 121C59.6001 121.5 59.6001 122.1 59.6001 122.6C59.6001 123.1 59.6001 123.7 59.6001 124.2L59.7001 125.8L59.9001 127.4L60.2001 129L60.5001 130.6C60.6001 131.1 60.8001 131.7 60.9001 132.2L61.2001 133C61.3001 133.3 61.4001 133.5 61.5001 133.8C62.3001 136 63.3 137.9 64.8 139.7Z" fill="#8C6239"/>
<path d="M84.0001 127.8C83.9001 129.5 83.5001 131.1 82.9001 132.7C82.6001 133.5 82.3001 134.3 81.9001 135C81.8001 135.2 81.7001 135.4 81.6001 135.6L81.3 136.2C81.1 136.6 80.9001 136.9 80.6001 137.3C80.1001 138 79.6001 138.7 79.0001 139.3C78.4001 139.9 77.8001 140.5 77.0001 140.9C75.6001 141.9 73.9 142.5 72.3 142.5C73.9 142.1 75.3001 141.3 76.6001 140.2C77.2001 139.7 77.8 139.1 78.3 138.5C78.6 138.2 78.8001 137.9 79.1001 137.6C79.2001 137.4 79.3001 137.3 79.5001 137.1L79.8 136.6C80 136.3 80.2001 135.9 80.5001 135.6C80.7001 135.3 80.9001 134.9 81.1001 134.6C81.5001 133.9 81.9001 133.2 82.2001 132.4C82.9001 130.9 83.5001 129.4 84.0001 127.8Z" fill="#8C6239"/>
<path d="M77.3999 109.4C77.5999 109.5 77.6999 109.6 77.8999 109.8C78.0999 109.9 78.1999 110.1 78.3999 110.2C78.6999 110.5 78.9999 110.8 79.2999 111.1C79.7999 111.8 80.1999 112.5 80.5999 113.3C80.8999 114.1 81.1999 114.9 81.2999 115.7C81.3999 116.5 81.4999 117.4 81.3999 118.2C81.0999 117.4 80.7999 116.7 80.4999 115.9C80.1999 115.1 79.8999 114.4 79.5999 113.7C79.2999 113 78.9999 112.3 78.5999 111.5C78.3999 111.1 78.1999 110.8 77.9999 110.4L77.7999 110.1C77.6999 110 77.6999 109.9 77.5999 109.8C77.6999 109.8 77.4999 109.6 77.3999 109.4Z" fill="#8C6239"/>
<path d="M66.1001 110.8C66.4001 110.1 66.9001 109.4 67.4001 108.9C68.0001 108.3 68.6001 107.9 69.3001 107.5C70.0001 107.2 70.8001 106.9 71.6001 106.9C72.4001 106.9 73.2001 107 73.9001 107.4C73.1001 107.4 72.4001 107.5 71.7001 107.7C71.0001 107.9 70.3001 108.1 69.7001 108.4C69.1001 108.7 68.5001 109.1 67.9001 109.5C67.4001 109.9 66.8001 110.3 66.1001 110.8Z" fill="#8C6239"/>
<path d="M80.8 128C80.5 129.8 79.9 131.6 78.9 133.3C78.4 134.1 77.8 134.9 77.2 135.6C76.5 136.3 75.8 136.9 74.9 137.4C74.5 137.6 74 137.8 73.5 138C73 138.1 72.5 138.3 72 138.3C71.5 138.3 71 138.3 70.5 138.3C70 138.2 69.5 138.1 69.1 137.9C68.2 137.5 67.4 137 66.7 136.3C66.5 136.1 66.4 136 66.2 135.8C66 135.6 65.9 135.4 65.8 135.2C65.5 134.8 65.3 134.4 65 134L65.5 134.5C65.7 134.7 65.8 134.8 66 135C66.2 135.2 66.3 135.3 66.5 135.5C66.7 135.7 66.9 135.8 67 135.9C67.2 136 67.4 136.2 67.6 136.3C67.8 136.4 68 136.5 68.2 136.6C68.6 136.8 69 137 69.4 137.1C71.1 137.6 72.9 137.4 74.4 136.5C75.2 136.1 75.9 135.5 76.5 134.9C77.1 134.3 77.7 133.6 78.2 132.8C79.3 131.4 80.1 129.8 80.8 128Z" fill="#8C6239"/>
<path d="M65.9001 127.4C65.3001 125.8 65.1001 124.1 65.1001 122.4C65.1001 120.7 65.4001 119 66.0001 117.3C66.3001 116.5 66.7001 115.7 67.2001 115C67.4001 114.6 67.7001 114.3 68.0001 113.9C68.3001 113.6 68.6001 113.2 69.0001 113C69.7001 112.4 70.5001 112 71.4001 111.8C72.3001 111.6 73.3001 111.7 74.2001 112C74.4001 112.1 74.6001 112.2 74.8001 112.3L75.4001 112.7C75.6001 112.8 75.8001 113 75.9001 113.1C76.0001 113.2 76.1001 113.3 76.1001 113.3L76.3001 113.5C76.9001 114.2 77.4001 114.9 77.8001 115.7L77.9001 116C77.9001 116.1 78.0001 116.2 78.0001 116.3L78.2001 116.9L78.4001 117.5C78.4001 117.6 78.5001 117.7 78.5001 117.8L78.6001 118.1C78.8001 118.9 78.9001 119.8 79.0001 120.7C79.1001 122.4 78.9001 124.2 78.4001 125.8C78.1001 126.6 77.9001 127.4 77.5001 128.2C77.1001 129 76.7001 129.7 76.1001 130.3C76.3001 129.9 76.5001 129.6 76.7001 129.2C76.9001 128.8 77.1001 128.4 77.2001 128.1C77.5001 127.3 77.7001 126.5 77.9001 125.7C78.2001 124.1 78.3001 122.4 78.2001 120.8L78.1001 120.2V119.9L78.0001 119.6L77.9001 119L77.8001 118.4L77.7001 118.1C77.7001 118 77.6001 117.9 77.6001 117.8L77.4001 117.2L77.2001 116.6C77.2001 116.5 77.1001 116.4 77.1001 116.3L77.0001 116C76.7001 115.3 76.2001 114.6 75.7001 114L75.5001 113.8C75.4001 113.7 75.4001 113.7 75.3001 113.6L74.8001 113.2L74.3001 112.9C74.1001 112.8 74.0001 112.7 73.8001 112.7C73.1001 112.4 72.3001 112.4 71.6001 112.5C70.9001 112.7 70.2001 113 69.6001 113.5C69.3001 113.7 69.0001 114 68.7001 114.3C68.5001 114.6 68.2001 114.9 68.0001 115.3C67.5001 116 67.2001 116.7 66.8001 117.4C66.2001 118.9 65.8001 120.5 65.7001 122.2C65.4001 124.1 65.5001 125.8 65.9001 127.4Z" fill="#8C6239"/>
<path d="M94.7 149.2C102.9 148.8 111.2 148.5 119.4 148.3C123.5 148.2 127.6 148.1 131.8 148L144.2 147.7L156.6 147.5C160.7 147.5 164.8 147.4 169 147.4C177.2 147.3 185.5 147.3 193.7 147.4C185.5 147.8 177.2 148.1 169 148.3C164.9 148.4 160.8 148.5 156.6 148.6L144.2 148.9L131.8 149.1C127.7 149.1 123.6 149.2 119.4 149.2C111.2 149.3 103 149.3 94.7 149.2Z" fill="#603813"/>
<path d="M145.8 134C150.7 133.7 155.6 133.4 160.4 133.2C162.8 133.1 165.3 133 167.7 133L175 132.8L182.3 132.7C184.7 132.7 187.2 132.7 189.6 132.7C194.5 132.7 199.4 132.7 204.3 132.9C199.4 133.3 194.5 133.5 189.7 133.7C187.3 133.8 184.8 133.9 182.4 133.9L175.1 134.1L167.8 134.2C165.4 134.2 162.9 134.2 160.5 134.2C155.5 134.2 150.7 134.1 145.8 134Z" fill="#603813"/>
<path d="M103.5 119.1C108.4 118.8 113.3 118.5 118.1 118.3C120.5 118.2 123 118.1 125.4 118.1L132.7 117.9L140 117.8C142.4 117.8 144.9 117.8 147.3 117.8C152.2 117.8 157.1 117.8 162 118C157.1 118.4 152.2 118.6 147.4 118.8C145 118.9 142.5 119 140.1 119L132.8 119.2L125.5 119.3C123.1 119.3 120.6 119.3 118.2 119.3C113.2 119.3 108.3 119.3 103.5 119.1Z" fill="#603813"/>
<path d="M92.2 91.5002C94.1 91.2002 95.9999 91.0002 97.8999 90.9002C99.7999 90.8002 101.7 90.7002 103.6 90.7002C105.5 90.7002 107.4 90.7002 109.3 90.7002C111.2 90.8002 113.1 90.9002 115 91.1002C113.1 91.4002 111.2 91.6002 109.3 91.7002C107.4 91.8002 105.5 91.9002 103.6 91.9002C101.7 91.9002 99.7999 91.9002 97.8999 91.9002C95.9999 91.8002 94.1 91.7002 92.2 91.5002Z" fill="#603813"/>
<path d="M133.3 101.2C138.6 100.8 143.9 100.6 149.2 100.4C151.8 100.3 154.5 100.2 157.1 100.1L165 99.9003L172.9 99.8003C175.5 99.8003 178.2 99.7003 180.8 99.8003C186.1 99.8003 191.4 99.8003 196.7 100C191.4 100.4 186.1 100.6 180.8 100.8C178.2 100.9 175.5 101 172.9 101.1L165 101.3L157.1 101.4C154.5 101.4 151.8 101.5 149.2 101.4C143.9 101.4 138.6 101.4 133.3 101.2Z" fill="#603813"/>
<path d="M157.6 90.1002C160.6 89.8002 163.5 89.6002 166.5 89.5002C169.5 89.3002 172.4 89.3002 175.4 89.2002C178.4 89.1002 181.3 89.1002 184.3 89.2002C187.3 89.2002 190.2 89.3002 193.2 89.5002C190.2 89.8002 187.3 90.0002 184.3 90.2002C181.3 90.4002 178.4 90.4002 175.4 90.5002C172.4 90.6002 169.5 90.6002 166.5 90.5002C163.5 90.4002 160.5 90.3002 157.6 90.1002Z" fill="#603813"/>
</g>
<defs>
<clipPath id="clip0_47_2">
<rect width="222" height="159" fill="white"/>
</clipPath>
</defs>
</svg>
